key_frame=1
pkt_pts_time=0.000000
--
pkt_pts_time=1.209542
key_frame=1
pkt_pts_time=1.251250
--
pkt_pts_time=2.460792
key_frame=1
pkt_pts_time=2.502500
--
pkt_pts_time=3.712042
key_frame=1
pkt_pts_time=3.753750
--
pkt_pts_time=4.963292
key_frame=1
pkt_pts_time=5.005000
--
pkt_pts_time=6.214542
key_frame=1
pkt_pts_time=6.256250
--
pkt_pts_time=7.465792
key_frame=1
pkt_pts_time=7.507500
--
pkt_pts_time=8.717042
key_frame=1
pkt_pts_time=8.758750
--
pkt_pts_time=9.968292
key_frame=1
pkt_pts_time=10.010000
--
pkt_pts_time=11.219542
key_frame=1
pkt_pts_time=11.261250
--
pkt_pts_time=12.470792
key_frame=1
pkt_pts_time=12.512500
--
pkt_pts_time=13.722042
key_frame=1
pkt_pts_time=13.763750
--
pkt_pts_time=14.973292
key_frame=1
pkt_pts_time=15.015000
--
pkt_pts_time=16.224542
key_frame=1
pkt_pts_time=16.266250
--
pkt_pts_time=17.475792
key_frame=1
pkt_pts_time=17.517500
--
pkt_pts_time=18.727042
key_frame=1
pkt_pts_time=18.768750
--
pkt_pts_time=19.978292
key_frame=1
pkt_pts_time=20.020000
--
pkt_pts_time=21.229542
key_frame=1
pkt_pts_time=21.271250
--
pkt_pts_time=22.480792
key_frame=1
pkt_pts_time=22.522500
--
pkt_pts_time=23.732042
key_frame=1
pkt_pts_time=23.773750
--
pkt_pts_time=24.983292
key_frame=1
pkt_pts_time=25.025000
--
pkt_pts_time=26.234542
key_frame=1
pkt_pts_time=26.276250
--
pkt_pts_time=27.485792
key_frame=1
pkt_pts_time=27.527500
--
pkt_pts_time=28.737042
key_frame=1
pkt_pts_time=28.778750
--
pkt_pts_time=29.988292
key_frame=1
pkt_pts_time=30.030000
--
pkt_pts_time=31.239542
key_frame=1
pkt_pts_time=31.281250
--
pkt_pts_time=32.490792
key_frame=1
pkt_pts_time=32.532500
--
pkt_pts_time=33.742042
key_frame=1
pkt_pts_time=33.783750
--
pkt_pts_time=34.993292
key_frame=1
pkt_pts_time=35.035000
--
pkt_pts_time=36.244542
key_frame=1
pkt_pts_time=36.286250
--
pkt_pts_time=37.495792
key_frame=1
pkt_pts_time=37.537500
--
pkt_pts_time=38.747042
key_frame=1
pkt_pts_time=38.788750
--
pkt_pts_time=39.998292
key_frame=1
pkt_pts_time=40.040000
--
pkt_pts_time=41.249542
key_frame=1
pkt_pts_time=41.291250
--
pkt_pts_time=42.500792
key_frame=1
pkt_pts_time=42.542500
--
pkt_pts_time=43.752042
key_frame=1
pkt_pts_time=43.793750
--
pkt_pts_time=45.003292
key_frame=1
pkt_pts_time=45.045000
--
pkt_pts_time=46.254542
key_frame=1
pkt_pts_time=46.296250
--
pkt_pts_time=47.505792
key_frame=1
pkt_pts_time=47.547500
--
pkt_pts_time=48.757042
key_frame=1
pkt_pts_time=48.798750
--
pkt_pts_time=50.008292
key_frame=1
pkt_pts_time=50.050000
--
pkt_pts_time=51.259542
key_frame=1
pkt_pts_time=51.301250
--
pkt_pts_time=52.510792
key_frame=1
pkt_pts_time=52.552500
--
pkt_pts_time=53.762042
key_frame=1
pkt_pts_time=53.803750
--
pkt_pts_time=55.013292
key_frame=1
pkt_pts_time=55.055000
--
pkt_pts_time=56.264542
key_frame=1
pkt_pts_time=56.306250
--
pkt_pts_time=57.515792
key_frame=1
pkt_pts_time=57.557500
--
pkt_pts_time=58.767042
key_frame=1
pkt_pts_time=58.808750
--
pkt_pts_time=60.018292
key_frame=1
pkt_pts_time=60.060000
--
pkt_pts_time=61.269542
key_frame=1
pkt_pts_time=61.311250
--
pkt_pts_time=62.520792
key_frame=1
pkt_pts_time=62.562500
--
pkt_pts_time=63.772042
key_frame=1
pkt_pts_time=63.813750
--
pkt_pts_time=65.023292
key_frame=1
pkt_pts_time=65.065000
--
pkt_pts_time=66.274542
key_frame=1
pkt_pts_time=66.316250
--
pkt_pts_time=67.525792
key_frame=1
pkt_pts_time=67.567500
--
pkt_pts_time=68.777042
key_frame=1
pkt_pts_time=68.818750
--
pkt_pts_time=70.028292
key_frame=1
pkt_pts_time=70.070000
--
pkt_pts_time=71.279542
key_frame=1
pkt_pts_time=71.321250
--
pkt_pts_time=72.530792
key_frame=1
pkt_pts_time=72.572500
--
pkt_pts_time=73.782042
key_frame=1
pkt_pts_time=73.823750
--
pkt_pts_time=75.033292
key_frame=1
pkt_pts_time=75.075000
--
pkt_pts_time=76.284542
key_frame=1
pkt_pts_time=76.326250
--
pkt_pts_time=77.535792
key_frame=1
pkt_pts_time=77.577500
--
pkt_pts_time=78.787042
key_frame=1
pkt_pts_time=78.828750
--
pkt_pts_time=80.038292
key_frame=1
pkt_pts_time=80.080000
--
pkt_pts_time=81.289542
key_frame=1
pkt_pts_time=81.331250
--
pkt_pts_time=82.540792
key_frame=1
pkt_pts_time=82.582500
--
pkt_pts_time=83.792042
key_frame=1
pkt_pts_time=83.833750
--
pkt_pts_time=85.043292
key_frame=1
pkt_pts_time=85.085000
--
pkt_pts_time=86.294542
key_frame=1
pkt_pts_time=86.336250
--
pkt_pts_time=87.545792
key_frame=1
pkt_pts_time=87.587500
--
pkt_pts_time=88.797042
key_frame=1
pkt_pts_time=88.838750
--
pkt_pts_time=90.048292
key_frame=1
pkt_pts_time=90.090000
--
pkt_pts_time=91.299542
key_frame=1
pkt_pts_time=91.341250
--
pkt_pts_time=92.550792
key_frame=1
pkt_pts_time=92.592500
--
pkt_pts_time=93.802042
key_frame=1
pkt_pts_time=93.843750
--
pkt_pts_time=95.053292
key_frame=1
pkt_pts_time=95.095000
--
pkt_pts_time=96.304542
key_frame=1
pkt_pts_time=96.346250
--
pkt_pts_time=97.555792
key_frame=1
pkt_pts_time=97.597500
--
pkt_pts_time=98.807042
key_frame=1
pkt_pts_time=98.848750
--
pkt_pts_time=100.058292
key_frame=1
pkt_pts_time=100.100000
--
pkt_pts_time=101.309542
key_frame=1
pkt_pts_time=101.351250
--
pkt_pts_time=102.560792
key_frame=1
pkt_pts_time=102.602500
--
pkt_pts_time=103.812042
key_frame=1
pkt_pts_time=103.853750
--
pkt_pts_time=105.063292
key_frame=1
pkt_pts_time=105.105000
--
pkt_pts_time=106.314542
key_frame=1
pkt_pts_time=106.356250
--
pkt_pts_time=107.565792
key_frame=1
pkt_pts_time=107.607500
--
pkt_pts_time=108.817042
key_frame=1
pkt_pts_time=108.858750
--
pkt_pts_time=110.068292
key_frame=1
pkt_pts_time=110.110000
--
pkt_pts_time=111.319542
key_frame=1
pkt_pts_time=111.361250
--
pkt_pts_time=112.570792
key_frame=1
pkt_pts_time=112.612500
--
pkt_pts_time=113.822042
key_frame=1
pkt_pts_time=113.863750
--
pkt_pts_time=115.073292
key_frame=1
pkt_pts_time=115.115000
--
pkt_pts_time=116.324542
key_frame=1
pkt_pts_time=116.366250
--
pkt_pts_time=117.575792
key_frame=1
pkt_pts_time=117.617500
--
pkt_pts_time=118.827042
key_frame=1
pkt_pts_time=118.868750
--
pkt_pts_time=120.078292
key_frame=1
pkt_pts_time=120.120000
--
pkt_pts_time=121.329542
key_frame=1
pkt_pts_time=121.371250
--
pkt_pts_time=122.580792
key_frame=1
pkt_pts_time=122.622500
--
pkt_pts_time=123.832042
key_frame=1
pkt_pts_time=123.873750
--
pkt_pts_time=125.083292
key_frame=1
pkt_pts_time=125.125000
--
pkt_pts_time=126.334542
key_frame=1
pkt_pts_time=126.376250
--
pkt_pts_time=127.585792
key_frame=1
pkt_pts_time=127.627500
--
pkt_pts_time=128.837042
key_frame=1
pkt_pts_time=128.878750
--
pkt_pts_time=130.088292
key_frame=1
pkt_pts_time=130.130000
--
pkt_pts_time=131.339542
key_frame=1
pkt_pts_time=131.381250
--
pkt_pts_time=132.590792
key_frame=1
pkt_pts_time=132.632500
--
pkt_pts_time=133.842042
key_frame=1
pkt_pts_time=133.883750
--
pkt_pts_time=135.093292
key_frame=1
pkt_pts_time=135.135000
--
pkt_pts_time=136.344542
key_frame=1
pkt_pts_time=136.386250
--
pkt_pts_time=137.595792
key_frame=1
pkt_pts_time=137.637500
--
pkt_pts_time=138.847042
key_frame=1
pkt_pts_time=138.888750
--
pkt_pts_time=140.098292
key_frame=1
pkt_pts_time=140.140000
--
pkt_pts_time=141.349542
key_frame=1
pkt_pts_time=141.391250
--
pkt_pts_time=142.600792
key_frame=1
pkt_pts_time=142.642500
--
pkt_pts_time=143.852042
key_frame=1
pkt_pts_time=143.893750
--
pkt_pts_time=145.103292
key_frame=1
pkt_pts_time=145.145000
--
pkt_pts_time=146.354542
key_frame=1
pkt_pts_time=146.396250
--
pkt_pts_time=147.605792
key_frame=1
pkt_pts_time=147.647500
--
pkt_pts_time=148.857042
key_frame=1
pkt_pts_time=148.898750
--
pkt_pts_time=150.108292
key_frame=1
pkt_pts_time=150.150000
--
pkt_pts_time=151.359542
key_frame=1
pkt_pts_time=151.401250
--
pkt_pts_time=152.610792
key_frame=1
pkt_pts_time=152.652500
--
pkt_pts_time=153.862042
key_frame=1
pkt_pts_time=153.903750
--
pkt_pts_time=155.113292
key_frame=1
pkt_pts_time=155.155000
--
pkt_pts_time=156.364542
key_frame=1
pkt_pts_time=156.406250
--
pkt_pts_time=157.615792
key_frame=1
pkt_pts_time=157.657500
--
pkt_pts_time=158.867042
key_frame=1
pkt_pts_time=158.908750
--
pkt_pts_time=160.118292
key_frame=1
pkt_pts_time=160.160000
--
pkt_pts_time=161.369542
key_frame=1
pkt_pts_time=161.411250
--
pkt_pts_time=162.620792
key_frame=1
pkt_pts_time=162.662500
--
pkt_pts_time=163.872042
key_frame=1
pkt_pts_time=163.913750
--
pkt_pts_time=165.123292
key_frame=1
pkt_pts_time=165.165000
--
pkt_pts_time=166.374542
key_frame=1
pkt_pts_time=166.416250
--
pkt_pts_time=167.625792
key_frame=1
pkt_pts_time=167.667500
--
pkt_pts_time=168.877042
key_frame=1
pkt_pts_time=168.918750
--
pkt_pts_time=170.128292
key_frame=1
pkt_pts_time=170.170000
--
pkt_pts_time=171.379542
key_frame=1
pkt_pts_time=171.421250
--
pkt_pts_time=172.630792
key_frame=1
pkt_pts_time=172.672500
--
pkt_pts_time=173.882042
key_frame=1
pkt_pts_time=173.923750
--
pkt_pts_time=175.133292
key_frame=1
pkt_pts_time=175.175000
--
pkt_pts_time=176.384542
key_frame=1
pkt_pts_time=176.426250
--
pkt_pts_time=177.635792
key_frame=1
pkt_pts_time=177.677500
--
pkt_pts_time=178.887042
key_frame=1
pkt_pts_time=178.928750
--
pkt_pts_time=180.138292
key_frame=1
pkt_pts_time=180.180000
--
pkt_pts_time=181.389542
key_frame=1
pkt_pts_time=181.431250
--
pkt_pts_time=182.640792
key_frame=1
pkt_pts_time=182.682500
--
pkt_pts_time=183.892042
key_frame=1
pkt_pts_time=183.933750
--
pkt_pts_time=185.143292
key_frame=1
pkt_pts_time=185.185000
--
pkt_pts_time=186.394542
key_frame=1
pkt_pts_time=186.436250
--
pkt_pts_time=187.645792
key_frame=1
pkt_pts_time=187.687500
--
pkt_pts_time=188.897042
key_frame=1
pkt_pts_time=188.938750
--
pkt_pts_time=190.148292
key_frame=1
pkt_pts_time=190.190000
--
pkt_pts_time=191.399542
key_frame=1
pkt_pts_time=191.441250
--
pkt_pts_time=192.650792
key_frame=1
pkt_pts_time=192.692500
--
pkt_pts_time=193.902042
key_frame=1
pkt_pts_time=193.943750
--
pkt_pts_time=195.153292
key_frame=1
pkt_pts_time=195.195000
--
pkt_pts_time=196.404542
key_frame=1
pkt_pts_time=196.446250
--
pkt_pts_time=197.655792
key_frame=1
pkt_pts_time=197.697500
--
pkt_pts_time=198.907042
key_frame=1
pkt_pts_time=198.948750
--
pkt_pts_time=200.158292
key_frame=1
pkt_pts_time=200.200000
--
pkt_pts_time=201.409542
key_frame=1
pkt_pts_time=201.451250
--
pkt_pts_time=202.660792
key_frame=1
pkt_pts_time=202.702500
--
pkt_pts_time=203.912042
key_frame=1
pkt_pts_time=203.953750
--
pkt_pts_time=205.163292
key_frame=1
pkt_pts_time=205.205000
--
pkt_pts_time=206.414542
key_frame=1
pkt_pts_time=206.456250
--
pkt_pts_time=207.665792
key_frame=1
pkt_pts_time=207.707500
--
pkt_pts_time=208.917042
key_frame=1
pkt_pts_time=208.958750
--
pkt_pts_time=210.168292
key_frame=1
pkt_pts_time=210.210000
--
pkt_pts_time=211.419542
key_frame=1
pkt_pts_time=211.461250
--
pkt_pts_time=212.670792
key_frame=1
pkt_pts_time=212.712500
--
pkt_pts_time=213.922042
key_frame=1
pkt_pts_time=213.963750
--
pkt_pts_time=215.173292
key_frame=1
pkt_pts_time=215.215000
--
pkt_pts_time=216.424542
key_frame=1
pkt_pts_time=216.466250
--
pkt_pts_time=217.675792
key_frame=1
pkt_pts_time=217.717500
--
pkt_pts_time=218.927042
key_frame=1
pkt_pts_time=218.968750
--
pkt_pts_time=220.178292
key_frame=1
pkt_pts_time=220.220000
--
pkt_pts_time=221.429542
key_frame=1
pkt_pts_time=221.471250
--
pkt_pts_time=222.680792
key_frame=1
pkt_pts_time=222.722500
--
pkt_pts_time=223.932042
key_frame=1
pkt_pts_time=223.973750
--
pkt_pts_time=225.183292
key_frame=1
pkt_pts_time=225.225000
--
pkt_pts_time=226.434542
key_frame=1
pkt_pts_time=226.476250
--
pkt_pts_time=227.685792
key_frame=1
pkt_pts_time=227.727500
--
pkt_pts_time=228.937042
key_frame=1
pkt_pts_time=228.978750
--
pkt_pts_time=230.188292
key_frame=1
pkt_pts_time=230.230000
--
pkt_pts_time=231.439542
key_frame=1
pkt_pts_time=231.481250
--
pkt_pts_time=232.690792
key_frame=1
pkt_pts_time=232.732500
--
pkt_pts_time=233.942042
key_frame=1
pkt_pts_time=233.983750
--
pkt_pts_time=235.193292
key_frame=1
pkt_pts_time=235.235000
--
pkt_pts_time=236.444542
key_frame=1
pkt_pts_time=236.486250
--
pkt_pts_time=237.695792
key_frame=1
pkt_pts_time=237.737500
--
pkt_pts_time=238.947042
key_frame=1
pkt_pts_time=238.988750
--
pkt_pts_time=240.198292
key_frame=1
pkt_pts_time=240.240000
--
pkt_pts_time=241.449542
key_frame=1
pkt_pts_time=241.491250
--
pkt_pts_time=242.700792
key_frame=1
pkt_pts_time=242.742500
--
pkt_pts_time=243.952042
key_frame=1
pkt_pts_time=243.993750
--
pkt_pts_time=245.203292
key_frame=1
pkt_pts_time=245.245000
--
pkt_pts_time=246.454542
key_frame=1
pkt_pts_time=246.496250
--
pkt_pts_time=247.705792
key_frame=1
pkt_pts_time=247.747500
--
pkt_pts_time=248.957042
key_frame=1
pkt_pts_time=248.998750
--
pkt_pts_time=250.208292
key_frame=1
pkt_pts_time=250.250000
--
pkt_pts_time=251.459542
key_frame=1
pkt_pts_time=251.501250
--
pkt_pts_time=252.710792
key_frame=1
pkt_pts_time=252.752500
--
pkt_pts_time=253.962042
key_frame=1
pkt_pts_time=254.003750
--
pkt_pts_time=255.213292
key_frame=1
pkt_pts_time=255.255000
--
pkt_pts_time=256.464542
key_frame=1
pkt_pts_time=256.506250
--
pkt_pts_time=257.715792
key_frame=1
pkt_pts_time=257.757500
--
pkt_pts_time=258.967042
key_frame=1
pkt_pts_time=259.008750
--
pkt_pts_time=260.218292
key_frame=1
pkt_pts_time=260.260000
--
pkt_pts_time=261.469542
key_frame=1
pkt_pts_time=261.511250
--
pkt_pts_time=262.720792
key_frame=1
pkt_pts_time=262.762500
--
pkt_pts_time=263.972042
key_frame=1
pkt_pts_time=264.013750
--
pkt_pts_time=265.223292
key_frame=1
pkt_pts_time=265.265000
--
pkt_pts_time=266.474542
key_frame=1
pkt_pts_time=266.516250
--
pkt_pts_time=267.725792
key_frame=1
pkt_pts_time=267.767500
--
pkt_pts_time=268.977042
key_frame=1
pkt_pts_time=269.018750
--
pkt_pts_time=270.228292
key_frame=1
pkt_pts_time=270.270000
--
pkt_pts_time=271.479542
key_frame=1
pkt_pts_time=271.521250
--
pkt_pts_time=272.730792
key_frame=1
pkt_pts_time=272.772500
--
pkt_pts_time=273.982042
key_frame=1
pkt_pts_time=274.023750
--
pkt_pts_time=275.233292
key_frame=1
pkt_pts_time=275.275000
--
pkt_pts_time=276.484542
key_frame=1
pkt_pts_time=276.526250
--
pkt_pts_time=277.735792
key_frame=1
pkt_pts_time=277.777500
--
pkt_pts_time=278.987042
key_frame=1
pkt_pts_time=279.028750
--
pkt_pts_time=280.238292
key_frame=1
pkt_pts_time=280.280000
--
pkt_pts_time=281.489542
key_frame=1
pkt_pts_time=281.531250
--
pkt_pts_time=282.740792
key_frame=1
pkt_pts_time=282.782500
--
pkt_pts_time=283.992042
key_frame=1
pkt_pts_time=284.033750
--
pkt_pts_time=285.243292
key_frame=1
pkt_pts_time=285.285000
--
pkt_pts_time=286.494542
key_frame=1
pkt_pts_time=286.536250
--
pkt_pts_time=287.745792
key_frame=1
pkt_pts_time=287.787500
--
pkt_pts_time=288.997042
key_frame=1
pkt_pts_time=289.038750
--
pkt_pts_time=290.248292
key_frame=1
pkt_pts_time=290.290000
--
pkt_pts_time=291.499542
key_frame=1
pkt_pts_time=291.541250
--
pkt_pts_time=292.750792
key_frame=1
pkt_pts_time=292.792500
--
pkt_pts_time=294.002042
key_frame=1
pkt_pts_time=294.043750
--
pkt_pts_time=295.253292
key_frame=1
pkt_pts_time=295.295000
--
pkt_pts_time=296.504542
key_frame=1
pkt_pts_time=296.546250
--
pkt_pts_time=297.755792
key_frame=1
pkt_pts_time=297.797500
--
pkt_pts_time=299.007042
key_frame=1
pkt_pts_time=299.048750
--
pkt_pts_time=300.258292
key_frame=1
pkt_pts_time=300.300000
--
pkt_pts_time=301.509542
key_frame=1
pkt_pts_time=301.551250
--
pkt_pts_time=302.760792
key_frame=1
pkt_pts_time=302.802500
--
pkt_pts_time=304.012042
key_frame=1
pkt_pts_time=304.053750
--
pkt_pts_time=305.263292
key_frame=1
pkt_pts_time=305.305000
--
pkt_pts_time=306.514542
key_frame=1
pkt_pts_time=306.556250
--
pkt_pts_time=307.765792
key_frame=1
pkt_pts_time=307.807500
--
pkt_pts_time=309.017042
key_frame=1
pkt_pts_time=309.058750
--
pkt_pts_time=310.268292
key_frame=1
pkt_pts_time=310.310000
--
pkt_pts_time=311.519542
key_frame=1
pkt_pts_time=311.561250
--
pkt_pts_time=312.770792
key_frame=1
pkt_pts_time=312.812500
--
pkt_pts_time=314.022042
key_frame=1
pkt_pts_time=314.063750
--
pkt_pts_time=315.273292
key_frame=1
pkt_pts_time=315.315000
--
pkt_pts_time=316.524542
key_frame=1
pkt_pts_time=316.566250
--
pkt_pts_time=317.775792
key_frame=1
pkt_pts_time=317.817500
--
pkt_pts_time=319.027042
key_frame=1
pkt_pts_time=319.068750
--
pkt_pts_time=320.278292
key_frame=1
pkt_pts_time=320.320000
--
pkt_pts_time=321.529542
key_frame=1
pkt_pts_time=321.571250
--
pkt_pts_time=322.780792
key_frame=1
pkt_pts_time=322.822500
--
pkt_pts_time=324.032042
key_frame=1
pkt_pts_time=324.073750
--
pkt_pts_time=325.283292
key_frame=1
pkt_pts_time=325.325000
--
pkt_pts_time=326.534542
key_frame=1
pkt_pts_time=326.576250
--
pkt_pts_time=327.785792
key_frame=1
pkt_pts_time=327.827500
--
pkt_pts_time=329.037042
key_frame=1
pkt_pts_time=329.078750
--
pkt_pts_time=330.288292
key_frame=1
pkt_pts_time=330.330000
--
pkt_pts_time=331.539542
key_frame=1
pkt_pts_time=331.581250
--
pkt_pts_time=332.790792
key_frame=1
pkt_pts_time=332.832500
--
pkt_pts_time=334.042042
key_frame=1
pkt_pts_time=334.083750
--
pkt_pts_time=335.293292
key_frame=1
pkt_pts_time=335.335000
--
pkt_pts_time=336.544542
key_frame=1
pkt_pts_time=336.586250
--
pkt_pts_time=337.795792
key_frame=1
pkt_pts_time=337.837500
--
pkt_pts_time=339.047042
key_frame=1
pkt_pts_time=339.088750
--
pkt_pts_time=340.298292
key_frame=1
pkt_pts_time=340.340000
--
pkt_pts_time=341.549542
key_frame=1
pkt_pts_time=341.591250
--
pkt_pts_time=342.800792
key_frame=1
pkt_pts_time=342.842500
--
pkt_pts_time=344.052042
key_frame=1
pkt_pts_time=344.093750
--
pkt_pts_time=345.303292
key_frame=1
pkt_pts_time=345.345000
--
pkt_pts_time=346.554542
key_frame=1
pkt_pts_time=346.596250
--
pkt_pts_time=347.805792
key_frame=1
pkt_pts_time=347.847500
--
pkt_pts_time=349.057042
key_frame=1
pkt_pts_time=349.098750
--
pkt_pts_time=350.308292
key_frame=1
pkt_pts_time=350.350000
--
pkt_pts_time=351.559542
key_frame=1
pkt_pts_time=351.601250
--
pkt_pts_time=352.810792
key_frame=1
pkt_pts_time=352.852500
--
pkt_pts_time=354.062042
key_frame=1
pkt_pts_time=354.103750
--
pkt_pts_time=355.313292
key_frame=1
pkt_pts_time=355.355000
--
pkt_pts_time=356.564542
key_frame=1
pkt_pts_time=356.606250
--
pkt_pts_time=357.815792
key_frame=1
pkt_pts_time=357.857500
--
pkt_pts_time=359.067042
key_frame=1
pkt_pts_time=359.108750
--
pkt_pts_time=360.318292
key_frame=1
pkt_pts_time=360.360000
--
pkt_pts_time=361.569542
key_frame=1
pkt_pts_time=361.611250
--
pkt_pts_time=362.820792
key_frame=1
pkt_pts_time=362.862500
--
pkt_pts_time=364.072042
key_frame=1
pkt_pts_time=364.113750
--
pkt_pts_time=365.323292
key_frame=1
pkt_pts_time=365.365000
--
pkt_pts_time=366.574542
key_frame=1
pkt_pts_time=366.616250
--
pkt_pts_time=367.825792
key_frame=1
pkt_pts_time=367.867500
--
pkt_pts_time=369.077042
key_frame=1
pkt_pts_time=369.118750
--
pkt_pts_time=370.328292
key_frame=1
pkt_pts_time=370.370000
--
pkt_pts_time=371.579542
key_frame=1
pkt_pts_time=371.621250
--
pkt_pts_time=372.830792
key_frame=1
pkt_pts_time=372.872500
--
pkt_pts_time=374.082042
key_frame=1
pkt_pts_time=374.123750
--
pkt_pts_time=375.333292
key_frame=1
pkt_pts_time=375.375000
--
pkt_pts_time=376.584542
key_frame=1
pkt_pts_time=376.626250
--
pkt_pts_time=377.835792
key_frame=1
pkt_pts_time=377.877500
--
pkt_pts_time=379.087042
key_frame=1
pkt_pts_time=379.128750
--
pkt_pts_time=380.338292
key_frame=1
pkt_pts_time=380.380000
--
pkt_pts_time=381.589542
key_frame=1
pkt_pts_time=381.631250
--
pkt_pts_time=382.840792
key_frame=1
pkt_pts_time=382.882500
--
pkt_pts_time=384.092042
key_frame=1
pkt_pts_time=384.133750
--
pkt_pts_time=385.343292
key_frame=1
pkt_pts_time=385.385000
--
pkt_pts_time=386.594542
key_frame=1
pkt_pts_time=386.636250
--
pkt_pts_time=387.845792
key_frame=1
pkt_pts_time=387.887500
--
pkt_pts_time=389.097042
key_frame=1
pkt_pts_time=389.138750
--
pkt_pts_time=390.348292
key_frame=1
pkt_pts_time=390.390000
--
pkt_pts_time=391.599542
key_frame=1
pkt_pts_time=391.641250
--
pkt_pts_time=392.850792
key_frame=1
pkt_pts_time=392.892500
--
pkt_pts_time=394.102042
key_frame=1
pkt_pts_time=394.143750
--
pkt_pts_time=395.353292
key_frame=1
pkt_pts_time=395.395000
--
pkt_pts_time=396.604542
key_frame=1
pkt_pts_time=396.646250
--
pkt_pts_time=397.855792
key_frame=1
pkt_pts_time=397.897500
--
pkt_pts_time=399.107042
key_frame=1
pkt_pts_time=399.148750
--
pkt_pts_time=400.358292
key_frame=1
pkt_pts_time=400.400000
--
pkt_pts_time=401.609542
key_frame=1
pkt_pts_time=401.651250
--
pkt_pts_time=402.860792
key_frame=1
pkt_pts_time=402.902500
--
pkt_pts_time=404.112042
key_frame=1
pkt_pts_time=404.153750
--
pkt_pts_time=405.363292
key_frame=1
pkt_pts_time=405.405000
--
pkt_pts_time=406.614542
key_frame=1
pkt_pts_time=406.656250
--
pkt_pts_time=407.865792
key_frame=1
pkt_pts_time=407.907500
--
pkt_pts_time=409.117042
key_frame=1
pkt_pts_time=409.158750
--
pkt_pts_time=410.368292
key_frame=1
pkt_pts_time=410.410000
--
pkt_pts_time=411.619542
key_frame=1
pkt_pts_time=411.661250
--
pkt_pts_time=412.870792
key_frame=1
pkt_pts_time=412.912500
--
pkt_pts_time=414.122042
key_frame=1
pkt_pts_time=414.163750
--
pkt_pts_time=415.373292
key_frame=1
pkt_pts_time=415.415000
--
pkt_pts_time=416.624542
key_frame=1
pkt_pts_time=416.666250
--
pkt_pts_time=417.875792
key_frame=1
pkt_pts_time=417.917500
--
pkt_pts_time=419.127042
key_frame=1
pkt_pts_time=419.168750
--
pkt_pts_time=420.378292
key_frame=1
pkt_pts_time=420.420000
--
pkt_pts_time=421.629542
key_frame=1
pkt_pts_time=421.671250
--
pkt_pts_time=422.880792
key_frame=1
pkt_pts_time=422.922500
--
pkt_pts_time=424.132042
key_frame=1
pkt_pts_time=424.173750
--
pkt_pts_time=425.383292
key_frame=1
pkt_pts_time=425.425000
--
pkt_pts_time=426.634542
key_frame=1
pkt_pts_time=426.676250
--
pkt_pts_time=427.885792
key_frame=1
pkt_pts_time=427.927500
--
pkt_pts_time=429.137042
key_frame=1
pkt_pts_time=429.178750
--
pkt_pts_time=430.388292
key_frame=1
pkt_pts_time=430.430000
--
pkt_pts_time=431.639542
key_frame=1
pkt_pts_time=431.681250
--
pkt_pts_time=432.890792
key_frame=1
pkt_pts_time=432.932500
--
pkt_pts_time=434.142042
key_frame=1
pkt_pts_time=434.183750
--
pkt_pts_time=435.393292
key_frame=1
pkt_pts_time=435.435000
--
pkt_pts_time=436.644542
key_frame=1
pkt_pts_time=436.686250
--
pkt_pts_time=437.895792
key_frame=1
pkt_pts_time=437.937500
--
pkt_pts_time=439.147042
key_frame=1
pkt_pts_time=439.188750
--
pkt_pts_time=440.398292
key_frame=1
pkt_pts_time=440.440000
--
pkt_pts_time=441.649542
key_frame=1
pkt_pts_time=441.691250
--
pkt_pts_time=442.900792
key_frame=1
pkt_pts_time=442.942500
--
pkt_pts_time=444.152042
key_frame=1
pkt_pts_time=444.193750
--
pkt_pts_time=445.403292
key_frame=1
pkt_pts_time=445.445000
--
pkt_pts_time=446.654542
key_frame=1
pkt_pts_time=446.696250
--
pkt_pts_time=447.905792
key_frame=1
pkt_pts_time=447.947500
--
pkt_pts_time=449.157042
key_frame=1
pkt_pts_time=449.198750
--
pkt_pts_time=450.408292
key_frame=1
pkt_pts_time=450.450000
--
pkt_pts_time=451.659542
key_frame=1
pkt_pts_time=451.701250
--
pkt_pts_time=452.910792
key_frame=1
pkt_pts_time=452.952500
--
pkt_pts_time=454.162042
key_frame=1
pkt_pts_time=454.203750
--
pkt_pts_time=455.413292
key_frame=1
pkt_pts_time=455.455000
--
pkt_pts_time=456.664542
key_frame=1
pkt_pts_time=456.706250
--
pkt_pts_time=457.915792
key_frame=1
pkt_pts_time=457.957500
--
pkt_pts_time=459.167042
key_frame=1
pkt_pts_time=459.208750
--
pkt_pts_time=460.418292
key_frame=1
pkt_pts_time=460.460000
--
pkt_pts_time=461.669542
key_frame=1
pkt_pts_time=461.711250
--
pkt_pts_time=462.920792
key_frame=1
pkt_pts_time=462.962500
--
pkt_pts_time=464.172042
key_frame=1
pkt_pts_time=464.213750
--
pkt_pts_time=465.423292
key_frame=1
pkt_pts_time=465.465000
--
pkt_pts_time=466.674542
key_frame=1
pkt_pts_time=466.716250
--
pkt_pts_time=467.925792
key_frame=1
pkt_pts_time=467.967500
--
pkt_pts_time=469.177042
key_frame=1
pkt_pts_time=469.218750
--
pkt_pts_time=470.428292
key_frame=1
pkt_pts_time=470.470000
--
pkt_pts_time=471.679542
key_frame=1
pkt_pts_time=471.721250
--
pkt_pts_time=472.930792
key_frame=1
pkt_pts_time=472.972500
--
pkt_pts_time=474.182042
key_frame=1
pkt_pts_time=474.223750
--
pkt_pts_time=475.433292
key_frame=1
pkt_pts_time=475.475000
--
pkt_pts_time=476.684542
key_frame=1
pkt_pts_time=476.726250
--
pkt_pts_time=477.935792
key_frame=1
pkt_pts_time=477.977500
--
pkt_pts_time=479.187042
key_frame=1
pkt_pts_time=479.228750
--
pkt_pts_time=480.438292
key_frame=1
pkt_pts_time=480.480000
--
pkt_pts_time=481.689542
key_frame=1
pkt_pts_time=481.731250
--
pkt_pts_time=482.940792
key_frame=1
pkt_pts_time=482.982500
--
pkt_pts_time=484.192042
key_frame=1
pkt_pts_time=484.233750
--
pkt_pts_time=485.443292
key_frame=1
pkt_pts_time=485.485000
--
pkt_pts_time=486.694542
key_frame=1
pkt_pts_time=486.736250
--
pkt_pts_time=487.945792
key_frame=1
pkt_pts_time=487.987500
--
pkt_pts_time=489.197042
key_frame=1
pkt_pts_time=489.238750
--
pkt_pts_time=490.448292
key_frame=1
pkt_pts_time=490.490000
--
pkt_pts_time=491.699542
key_frame=1
pkt_pts_time=491.741250
--
pkt_pts_time=492.950792
key_frame=1
pkt_pts_time=492.992500
--
pkt_pts_time=494.202042
key_frame=1
pkt_pts_time=494.243750
--
pkt_pts_time=495.453292
key_frame=1
pkt_pts_time=495.495000
--
pkt_pts_time=496.704542
key_frame=1
pkt_pts_time=496.746250
--
pkt_pts_time=497.955792
key_frame=1
pkt_pts_time=497.997500
--
pkt_pts_time=499.207042
key_frame=1
pkt_pts_time=499.248750
--
pkt_pts_time=500.458292
key_frame=1
pkt_pts_time=500.500000
--
pkt_pts_time=501.709542
key_frame=1
pkt_pts_time=501.751250
--
pkt_pts_time=502.960792
key_frame=1
pkt_pts_time=503.002500
--
pkt_pts_time=504.212042
key_frame=1
pkt_pts_time=504.253750
--
pkt_pts_time=505.463292
key_frame=1
pkt_pts_time=505.505000
--
pkt_pts_time=506.714542
key_frame=1
pkt_pts_time=506.756250
--
pkt_pts_time=507.965792
key_frame=1
pkt_pts_time=508.007500
--
pkt_pts_time=509.217042
key_frame=1
pkt_pts_time=509.258750
--
pkt_pts_time=510.468292
key_frame=1
pkt_pts_time=510.510000
--
pkt_pts_time=511.719542
key_frame=1
pkt_pts_time=511.761250
--
pkt_pts_time=512.970792
key_frame=1
pkt_pts_time=513.012500
--
pkt_pts_time=514.222042
key_frame=1
pkt_pts_time=514.263750
--
pkt_pts_time=515.473292
key_frame=1
pkt_pts_time=515.515000
--
pkt_pts_time=516.724542
key_frame=1
pkt_pts_time=516.766250
--
pkt_pts_time=517.975792
key_frame=1
pkt_pts_time=518.017500
--
pkt_pts_time=519.227042
key_frame=1
pkt_pts_time=519.268750
--
pkt_pts_time=520.478292
key_frame=1
pkt_pts_time=520.520000
--
pkt_pts_time=521.729542
key_frame=1
pkt_pts_time=521.771250
--
pkt_pts_time=522.980792
key_frame=1
pkt_pts_time=523.022500
--
pkt_pts_time=524.232042
key_frame=1
pkt_pts_time=524.273750
--
pkt_pts_time=525.483292
key_frame=1
pkt_pts_time=525.525000
--
pkt_pts_time=526.734542
key_frame=1
pkt_pts_time=526.776250
--
pkt_pts_time=527.985792
key_frame=1
pkt_pts_time=528.027500
--
pkt_pts_time=529.237042
key_frame=1
pkt_pts_time=529.278750
--
pkt_pts_time=530.488292
key_frame=1
pkt_pts_time=530.530000
--
pkt_pts_time=531.739542
key_frame=1
pkt_pts_time=531.781250
--
pkt_pts_time=532.990792
key_frame=1
pkt_pts_time=533.032500
--
pkt_pts_time=534.242042
key_frame=1
pkt_pts_time=534.283750
--
pkt_pts_time=535.493292
key_frame=1
pkt_pts_time=535.535000
--
pkt_pts_time=536.744542
key_frame=1
pkt_pts_time=536.786250
--
pkt_pts_time=537.995792
key_frame=1
pkt_pts_time=538.037500
--
pkt_pts_time=539.247042
key_frame=1
pkt_pts_time=539.288750
--
pkt_pts_time=540.498292
key_frame=1
pkt_pts_time=540.540000
--
pkt_pts_time=541.749542
key_frame=1
pkt_pts_time=541.791250
--
pkt_pts_time=543.000792
key_frame=1
pkt_pts_time=543.042500
--
pkt_pts_time=544.252042
key_frame=1
pkt_pts_time=544.293750
--
pkt_pts_time=545.503292
key_frame=1
pkt_pts_time=545.545000
--
pkt_pts_time=546.754542
key_frame=1
pkt_pts_time=546.796250
--
pkt_pts_time=548.005792
key_frame=1
pkt_pts_time=548.047500
--
pkt_pts_time=549.257042
key_frame=1
pkt_pts_time=549.298750
--
pkt_pts_time=550.508292
key_frame=1
pkt_pts_time=550.550000
--
pkt_pts_time=551.759542
key_frame=1
pkt_pts_time=551.801250
--
pkt_pts_time=553.010792
key_frame=1
pkt_pts_time=553.052500
--
pkt_pts_time=554.262042
key_frame=1
pkt_pts_time=554.303750
--
pkt_pts_time=555.513292
key_frame=1
pkt_pts_time=555.555000
--
pkt_pts_time=556.764542
key_frame=1
pkt_pts_time=556.806250
--
pkt_pts_time=558.015792
key_frame=1
pkt_pts_time=558.057500
--
pkt_pts_time=559.267042
key_frame=1
pkt_pts_time=559.308750
--
pkt_pts_time=560.518292
key_frame=1
pkt_pts_time=560.560000
--
pkt_pts_time=561.769542
key_frame=1
pkt_pts_time=561.811250
--
pkt_pts_time=563.020792
key_frame=1
pkt_pts_time=563.062500
--
pkt_pts_time=564.272042
key_frame=1
pkt_pts_time=564.313750
--
pkt_pts_time=565.523292
key_frame=1
pkt_pts_time=565.565000
--
pkt_pts_time=566.774542
key_frame=1
pkt_pts_time=566.816250
--
pkt_pts_time=568.025792
key_frame=1
pkt_pts_time=568.067500
--
pkt_pts_time=569.277042
key_frame=1
pkt_pts_time=569.318750
--
pkt_pts_time=570.528292
key_frame=1
pkt_pts_time=570.570000
--
pkt_pts_time=571.779542
key_frame=1
pkt_pts_time=571.821250
--
pkt_pts_time=573.030792
key_frame=1
pkt_pts_time=573.072500
--
pkt_pts_time=574.282042
key_frame=1
pkt_pts_time=574.323750
--
pkt_pts_time=575.533292
key_frame=1
pkt_pts_time=575.575000
--
pkt_pts_time=576.784542
key_frame=1
pkt_pts_time=576.826250
--
pkt_pts_time=578.035792
key_frame=1
pkt_pts_time=578.077500
--
pkt_pts_time=579.287042
key_frame=1
pkt_pts_time=579.328750
--
pkt_pts_time=580.538292
key_frame=1
pkt_pts_time=580.580000
--
pkt_pts_time=581.789542
key_frame=1
pkt_pts_time=581.831250
--
pkt_pts_time=583.040792
key_frame=1
pkt_pts_time=583.082500
--
pkt_pts_time=584.292042
key_frame=1
pkt_pts_time=584.333750
--
pkt_pts_time=585.543292
key_frame=1
pkt_pts_time=585.585000
--
pkt_pts_time=586.794542
key_frame=1
pkt_pts_time=586.836250
--
pkt_pts_time=588.045792
key_frame=1
pkt_pts_time=588.087500
--
pkt_pts_time=589.297042
key_frame=1
pkt_pts_time=589.338750
--
pkt_pts_time=590.548292
key_frame=1
pkt_pts_time=590.590000
--
pkt_pts_time=591.799542
key_frame=1
pkt_pts_time=591.841250
--
pkt_pts_time=593.050792
key_frame=1
pkt_pts_time=593.092500
--
pkt_pts_time=594.302042
key_frame=1
pkt_pts_time=594.343750
--
pkt_pts_time=595.553292
key_frame=1
pkt_pts_time=595.595000
--
pkt_pts_time=596.804542
key_frame=1
pkt_pts_time=596.846250
--
pkt_pts_time=598.055792
key_frame=1
pkt_pts_time=598.097500
--
pkt_pts_time=599.307042
key_frame=1
pkt_pts_time=599.348750
--
pkt_pts_time=600.558292
key_frame=1
pkt_pts_time=600.600000
--
pkt_pts_time=601.809542
key_frame=1
pkt_pts_time=601.851250
--
pkt_pts_time=603.060792
key_frame=1
pkt_pts_time=603.102500
--
pkt_pts_time=604.312042
key_frame=1
pkt_pts_time=604.353750
--
pkt_pts_time=605.563292
key_frame=1
pkt_pts_time=605.605000
--
pkt_pts_time=606.814542
key_frame=1
pkt_pts_time=606.856250
--
pkt_pts_time=608.065792
key_frame=1
pkt_pts_time=608.107500
--
pkt_pts_time=609.317042
key_frame=1
pkt_pts_time=609.358750
--
pkt_pts_time=610.568292
key_frame=1
pkt_pts_time=610.610000
--
pkt_pts_time=611.819542
key_frame=1
pkt_pts_time=611.861250
--
pkt_pts_time=613.070792
key_frame=1
pkt_pts_time=613.112500
--
pkt_pts_time=614.322042
key_frame=1
pkt_pts_time=614.363750
--
pkt_pts_time=615.573292
key_frame=1
pkt_pts_time=615.615000
--
pkt_pts_time=616.824542
key_frame=1
pkt_pts_time=616.866250
--
pkt_pts_time=618.075792
key_frame=1
pkt_pts_time=618.117500
--
pkt_pts_time=619.327042
key_frame=1
pkt_pts_time=619.368750
--
pkt_pts_time=620.578292
key_frame=1
pkt_pts_time=620.620000
--
pkt_pts_time=621.829542
key_frame=1
pkt_pts_time=621.871250
--
pkt_pts_time=623.080792
key_frame=1
pkt_pts_time=623.122500
--
pkt_pts_time=624.332042
key_frame=1
pkt_pts_time=624.373750
--
pkt_pts_time=625.583292
key_frame=1
pkt_pts_time=625.625000
--
pkt_pts_time=626.834542
key_frame=1
pkt_pts_time=626.876250
--
pkt_pts_time=628.085792
key_frame=1
pkt_pts_time=628.127500
--
pkt_pts_time=629.337042
key_frame=1
pkt_pts_time=629.378750
--
pkt_pts_time=630.588292
key_frame=1
pkt_pts_time=630.630000
--
pkt_pts_time=631.839542
key_frame=1
pkt_pts_time=631.881250
--
pkt_pts_time=633.090792
key_frame=1
pkt_pts_time=633.132500
--
pkt_pts_time=634.342042
key_frame=1
pkt_pts_time=634.383750
--
pkt_pts_time=635.593292
key_frame=1
pkt_pts_time=635.635000
--
pkt_pts_time=636.844542
key_frame=1
pkt_pts_time=636.886250
--
pkt_pts_time=638.095792
key_frame=1
pkt_pts_time=638.137500
--
pkt_pts_time=639.347042
key_frame=1
pkt_pts_time=639.388750
--
pkt_pts_time=640.598292
key_frame=1
pkt_pts_time=640.640000
--
pkt_pts_time=641.849542
key_frame=1
pkt_pts_time=641.891250
--
pkt_pts_time=643.100792
key_frame=1
pkt_pts_time=643.142500
--
pkt_pts_time=644.352042
key_frame=1
pkt_pts_time=644.393750
--
pkt_pts_time=645.603292
key_frame=1
pkt_pts_time=645.645000
--
pkt_pts_time=646.854542
key_frame=1
pkt_pts_time=646.896250
--
pkt_pts_time=648.105792
key_frame=1
pkt_pts_time=648.147500
--
pkt_pts_time=649.357042
key_frame=1
pkt_pts_time=649.398750
--
pkt_pts_time=650.608292
key_frame=1
pkt_pts_time=650.650000
--
pkt_pts_time=651.859542
key_frame=1
pkt_pts_time=651.901250
--
pkt_pts_time=653.110792
key_frame=1
pkt_pts_time=653.152500
--
pkt_pts_time=654.362042
key_frame=1
pkt_pts_time=654.403750
--
pkt_pts_time=655.613292
key_frame=1
pkt_pts_time=655.655000
--
pkt_pts_time=656.864542
key_frame=1
pkt_pts_time=656.906250
--
pkt_pts_time=658.115792
key_frame=1
pkt_pts_time=658.157500
--
pkt_pts_time=659.367042
key_frame=1
pkt_pts_time=659.408750
--
pkt_pts_time=660.618292
key_frame=1
pkt_pts_time=660.660000
--
pkt_pts_time=661.869542
key_frame=1
pkt_pts_time=661.911250
--
pkt_pts_time=663.120792
key_frame=1
pkt_pts_time=663.162500
--
pkt_pts_time=664.372042
key_frame=1
pkt_pts_time=664.413750
--
pkt_pts_time=665.623292
key_frame=1
pkt_pts_time=665.665000
--
pkt_pts_time=666.874542
key_frame=1
pkt_pts_time=666.916250
--
pkt_pts_time=668.125792
key_frame=1
pkt_pts_time=668.167500
--
pkt_pts_time=669.377042
key_frame=1
pkt_pts_time=669.418750
--
pkt_pts_time=670.628292
key_frame=1
pkt_pts_time=670.670000
--
pkt_pts_time=671.879542
key_frame=1
pkt_pts_time=671.921250
--
pkt_pts_time=673.130792
key_frame=1
pkt_pts_time=673.172500
--
pkt_pts_time=674.382042
key_frame=1
pkt_pts_time=674.423750
--
pkt_pts_time=675.633292
key_frame=1
pkt_pts_time=675.675000
--
pkt_pts_time=676.884542
key_frame=1
pkt_pts_time=676.926250
--
pkt_pts_time=678.135792
key_frame=1
pkt_pts_time=678.177500
--
pkt_pts_time=679.387042
key_frame=1
pkt_pts_time=679.428750
--
pkt_pts_time=680.638292
key_frame=1
pkt_pts_time=680.680000
--
pkt_pts_time=681.889542
key_frame=1
pkt_pts_time=681.931250
--
pkt_pts_time=683.140792
key_frame=1
pkt_pts_time=683.182500
--
pkt_pts_time=684.392042
key_frame=1
pkt_pts_time=684.433750
--
pkt_pts_time=685.643292
key_frame=1
pkt_pts_time=685.685000
--
pkt_pts_time=686.894542
key_frame=1
pkt_pts_time=686.936250
--
pkt_pts_time=688.145792
key_frame=1
pkt_pts_time=688.187500
--
pkt_pts_time=689.397042
key_frame=1
pkt_pts_time=689.438750
--
pkt_pts_time=690.648292
key_frame=1
pkt_pts_time=690.690000
--
pkt_pts_time=691.899542
key_frame=1
pkt_pts_time=691.941250
--
pkt_pts_time=693.150792
key_frame=1
pkt_pts_time=693.192500
--
pkt_pts_time=694.402042
key_frame=1
pkt_pts_time=694.443750
--
pkt_pts_time=695.653292
key_frame=1
pkt_pts_time=695.695000
--
pkt_pts_time=696.904542
key_frame=1
pkt_pts_time=696.946250
--
pkt_pts_time=698.155792
key_frame=1
pkt_pts_time=698.197500
--
pkt_pts_time=699.407042
key_frame=1
pkt_pts_time=699.448750
--
pkt_pts_time=700.658292
key_frame=1
pkt_pts_time=700.700000
